<svg xmlns="http://www.w3.org/2000/svg" version="1.1" xmlnsXlink="http://www.w3.org/1999/xlink" xmlnsSvgjs="http://svgjs.dev/svgjs" width="164" height="50" viewBox="0 0 164 50">
<rect width="50" height="50" x="0" y="0" fill="#044e54"/>
<g>
<rect width="50" height="50" y="182.769553103031" fill="#bef8" transform="matrix(0.7785865384871268,0,0,0.7785865384871268,0,27.93364943984784)" x="160.54734802246097"/>
<path d="M349.7971205296762 376.1461947287817L349.7971205296762 274.4362217734839L368.5972733216388 274.4362217734839L368.5972733216388 382.9669818697682Q368.5972733216388 401.73847589223095 357.6496233726605 412.8867372277087L357.6496233726605 412.8867372277087Q346.1001392641835 424.43622133618584 326.4975409262225 424.43622133618584L326.4975409262225 424.43622133618584Q306.6943312017618 424.43622133618584 295.546069866284 412.4855144547095L295.546069866284 412.4855144547095Q285.8307470058033 402.16835743473 285.8307470058033 385.43163604676334L285.8307470058033 385.43163604676334L285.8307470058033 374.71325625378466L305.0321225707651 374.71325625378466L305.0321225707651 381.9352661677703Q305.0321225707651 408.5592630332173 327.0993750857213 408.5592630332173L327.0993750857213 408.5592630332173Q339.27935212319704 408.5592630332173 345.26903494868515 399.4744331017354L345.26903494868515 399.4744331017354Q349.7971205296762 392.45303457424933 349.7971205296762 376.1461947287817L349.7971205296762 376.1461947287817Z " fill="#87eaf2" transform="matrix(0.7785865384871268,0,0,0.7785865384871268,0,27.93364943984784)"/>
<path d="M627.2140102224113 353.9389076952469L627.2140102224113 274.4362184361835L641.9093509251292 274.4362184361835L641.9093509251292 359.2704489867817Q641.9093509251292 373.9433882555015 633.3520031378758 382.65754608074116L633.3520031378758 382.65754608074116Q624.3242252366634 391.68532398195356 609.0016443820003 391.68532398195356L609.0016443820003 391.68532398195356Q593.5222534893509 391.68532398195356 584.8080956641112 382.34392600476855L584.8080956641112 382.34392600476855Q577.2140095387739 374.27940976547217 577.2140095387739 361.1969723106136L577.2140095387739 361.1969723106136L577.2140095387739 352.8188359953446L592.2229703174643 352.8188359953446L592.2229703174643 358.463997362852Q592.2229703174643 379.27492954703627 609.4720744959593 379.27492954703627L609.4720744959593 379.27492954703627Q618.9926839451286 379.27492954703627 623.6745836507201 372.1736749696559L623.6745836507201 372.1736749696559Q627.2140102224113 366.68532364013475 627.2140102224113 353.9389076952469L627.2140102224113 353.9389076952469ZM697.2184914663035 305.23819018349604L697.2184914663035 305.23819018349604Q715.9236888546715 305.23819018349604 725.7803198138115 318.29822620435647L725.7803198138115 318.29822620435647Q734.4720762050531 329.5885489393715 734.4720762050531 348.94338791368267L734.4720762050531 348.94338791368267Q734.4720762050531 370.5607717217966 723.1817534700382 381.8510944568115L723.1817534700382 381.8510944568115Q713.5043339828825 391.68532398195356 697.0616814283171 391.68532398195356L697.0616814283171 391.68532398195356Q678.0204625299784 391.68532398195356 668.0294229668502 378.9389080370656L668.0294229668502 378.9389080370656Q659.3152651416104 367.8277967740351 659.3152651416104 348.94338791368267L659.3152651416104 348.94338791368267Q659.3152651416104 327.01238402959626 670.7623979146118 315.2292297466243L670.7623979146118 315.2292297466243Q680.6190288737517 305.23819018349604 697.2184914663035 305.23819018349604ZM697.2184914663035 317.33496454244056L697.2184914663035 317.33496454244056Q685.9281687312886 317.33496454244056 679.4765557398514 325.80270659370177Q673.0249427484143 334.270448644963 673.0249427484143 348.94338791368267L673.0249427484143 348.94338791368267Q673.0249427484143 364.2659687683459 680.283007363781 372.33048500764215L680.283007363781 372.33048500764215Q686.5778103172319 379.4317395850226 697.0616814283171 379.4317395850226L697.0616814283171 379.4317395850226Q708.1951941253458 379.4317395850226 714.4003913428044 371.36722334572625Q720.605588560263 363.30270710642986 720.605588560263 348.94338791368267L720.605588560263 348.94338791368267Q720.605588560263 333.1503769450607 713.5043339828825 324.74983919579364L713.5043339828825 324.74983919579364Q707.3887425014161 317.33496454244056 697.2184914663035 317.33496454244056ZM750.2874886076733 389.9156106961079L750.2874886076733 274.4362184361835L763.3475246285337 274.4362184361835L763.3475246285337 318.1414161663702Q772.5545140017305 305.23819018349604 789.1539765942821 305.23819018349604L789.1539765942821 305.23819018349604Q806.7391022827478 305.23819018349604 816.2597117319172 318.1414161663702L816.2597117319172 318.1414161663702Q824.6378480471861 329.43173890138513 824.6378480471861 347.98012625176676L824.6378480471861 347.98012625176676Q824.6378480471861 369.4407000218943 813.5043353501576 381.35826290885456L813.5043353501576 381.35826290885456Q803.8269158630019 391.68532398195356 788.5043350083388 391.68532398195356L788.5043350083388 391.68532398195356Q771.2552308298438 391.68532398195356 762.2274529286315 378.62528796109297L762.2274529286315 378.62528796109297L762.2274529286315 389.9156106961079L750.2874886076733 389.9156106961079ZM786.7346217224932 317.4917745804269L786.7346217224932 317.4917745804269Q776.0939405734216 317.4917745804269 769.7319333179767 326.1163266696744Q763.3475246285337 334.7632801929199 763.3475246285337 348.94338791368267L763.3475246285337 348.94338791368267Q763.3475246285337 363.7955386543869 770.6055892439005 372.1736749696559L770.6055892439005 372.1736749696559Q776.9003921973513 379.27492954703627 786.7346217224932 379.27492954703627L786.7346217224932 379.27492954703627Q797.7113243815355 379.27492954703627 804.2301416749667 371.05360326975364Q810.771360402396 362.8098755584729 810.771360402396 348.94338791368267L810.771360402396 348.94338791368267Q810.771360402396 333.77761709700593 803.3564857490429 325.08586070576433L803.3564857490429 325.08586070576433Q796.9048727576059 317.4917745804269 786.7346217224932 317.4917745804269ZM840.2964504118199 307.0079034693416L853.3564864326804 307.0079034693416L853.3564864326804 389.9156106961079L840.2964504118199 389.9156106961079L840.2964504118199 307.0079034693416ZM847.0616834792297 274.5930284741698L847.0616834792297 274.5930284741698Q850.4443000129345 274.5930284741698 852.7964505827292 276.9227776099665Q855.1261997185261 279.27492817976133 855.1261997185261 282.50073467547986L855.1261997185261 282.50073467547986Q855.1261997185261 285.88335120918475 852.7964505827292 288.2131003449814Q850.4443000129345 290.56525091477624 847.0616834792297 290.56525091477624L847.0616834792297 290.56525091477624Q843.8358769835111 290.56525091477624 841.5061278477144 288.2131003449814Q839.1539772779197 285.88335120918475 839.1539772779197 282.50073467547986L839.1539772779197 282.50073467547986Q839.1539772779197 279.27492817976133 841.5061278477144 276.9227776099665Q843.8358769835111 274.5930284741698 847.0616834792297 274.5930284741698ZM949.6378497562799 378.7820979990793L949.6378497562799 378.7820979990793L949.6378497562799 389.42277914815094Q944.1494984267588 391.37170390598084 941.1029034030246 391.37170390598084L941.1029034030246 391.37170390598084Q928.1996774201505 391.37170390598084 927.05720428625 379.588549623009L927.05720428625 379.588549623009Q918.1862364230241 391.68532398195356 898.8313974487128 391.68532398195356L898.8313974487128 391.68532398195356Q885.4577413518796 391.68532398195356 878.0204652645285 384.2704493286005L878.0204652645285 384.2704493286005Q871.5688522730914 377.8188363371633 871.5688522730914 367.64858530205066L871.5688522730914 367.64858530205066Q871.5688522730914 356.04464249106314 879.8125799843722 349.74983953761233L879.8125799843722 349.74983953761233Q884.4720782559656 346.2104129659212 899.3242289966697 342.8277964322163L899.3242289966697 342.8277964322163L926.4075627003067 336.68980351675185L926.5867741722911 329.74535897735774Q926.5867741722911 317.33496454244056 907.8591753499251 317.33496454244056L907.8591753499251 317.33496454244056Q889.9604295854867 317.33496454244056 888.6835478475982 331.851093773174L888.6835478475982 331.851093773174L875.2874903167669 331.851093773174Q875.780321864724 320.8743911141317 880.7758416462881 315.07241970863794L880.7758416462881 315.07241970863794Q889.3107879995434 305.23819018349604 908.5088169358685 305.23819018349604L908.5088169358685 305.23819018349604Q939.6468101931516 305.23819018349604 939.6468101931516 327.8188356535258L939.6468101931516 327.8188356535258L939.6468101931516 374.10019829348784Q939.6468101931516 380.2381912089523 944.9559500506884 380.2381912089523L944.9559500506884 380.2381912089523Q945.6055916366317 380.2381912089523 948.3609680183913 379.27492954703627L948.3609680183913 379.27492954703627Q949.3242296803073 378.9389080370656 949.6378497562799 378.7820979990793ZM926.5867741722911 362.00342393454326L926.5867741722911 347.4872947038098L905.2830104401498 352.975646033331Q893.8358776671487 355.8878324530768 889.5572037735219 358.95682891080907Q885.2785298798954 362.00342393454326 885.2785298798954 367.4917752640644L885.2785298798954 367.4917752640644Q885.2785298798954 380.2381912089523 901.7435838684587 380.2381912089523L901.7435838684587 380.2381912089523Q913.3475266794462 380.2381912089523 921.4120429187426 372.66650651761285L921.4120429187426 372.66650651761285Q926.5867741722911 367.98460681202135 926.5867741722911 362.00342393454326L926.5867741722911 362.00342393454326ZM974.794660136085 424.436220487096L961.5778140772381 424.436220487096L961.5778140772381 307.0079034693416L973.8313984741691 307.0079034693416L973.8313984741691 319.7543194142294Q983.0383878473657 305.23819018349604 1000.2874920258607 305.23819018349604L1000.2874920258607 305.23819018349604Q1017.8726177143265 305.23819018349604 1027.3932271634958 318.7910577523135L1027.3932271634958 318.7910577523135Q1035.7713634787647 330.5518106012874 1035.7713634787647 349.74983953761233L1035.7713634787647 349.74983953761233Q1035.7713634787647 370.247151645824 1024.7946608197226 381.69428441882525L1024.7946608197226 381.69428441882525Q1015.2964528045512 391.68532398195356 1000.1306819878744 391.68532398195356L1000.1306819878744 391.68532398195356Q984.8081011332113 391.68532398195356 974.794660136085 380.5518112849249L974.794660136085 380.5518112849249L974.794660136085 424.436220487096ZM998.0249471920581 317.4917745804269L998.0249471920581 317.4917745804269Q987.5410760809729 317.4917745804269 981.179068825528 326.04912236768024Q974.794660136085 334.5840687209356 974.794660136085 348.94338791368267L974.794660136085 348.94338791368267Q974.794660136085 363.7955386543869 982.0527247514517 372.1736749696559L982.0527247514517 372.1736749696559Q988.1907176669163 379.27492954703627 998.0249471920581 379.27492954703627L998.0249471920581 379.27492954703627Q1009.0016498511004 379.27492954703627 1015.5204671445317 370.9639975337614Q1022.061685871961 362.65306552048656 1022.061685871961 348.94338791368267L1022.061685871961 348.94338791368267Q1022.061685871961 333.77761709700593 1014.6468112186079 325.08586070576433L1014.6468112186079 325.08586070576433Q1008.0383881891845 317.4917745804269 998.0249471920581 317.4917745804269ZM1062.8770986164 424.436220487096L1049.6378511235548 424.436220487096L1049.6378511235548 307.0079034693416L1061.8914355204856 307.0079034693416L1061.8914355204856 319.7543194142294Q1071.0984248936825 305.23819018349604 1088.3475290721776 305.23819018349604L1088.3475290721776 305.23819018349604Q1105.9326547606433 305.23819018349604 1115.4532642098125 318.7910577523135L1115.4532642098125 318.7910577523135Q1123.8314005250813 330.5518106012874 1123.8314005250813 349.74983953761233L1123.8314005250813 349.74983953761233Q1123.8314005250813 370.247151645824 1112.8770993000371 381.69428441882525L1112.8770993000371 381.69428441882525Q1103.356489850868 391.68532398195356 1088.1907190341913 391.68532398195356L1088.1907190341913 391.68532398195356Q1072.8681381795282 391.68532398195356 1062.8770986164 380.5518112849249L1062.8770986164 380.5518112849249L1062.8770986164 424.436220487096ZM1086.084984238375 317.4917745804269L1086.084984238375 317.4917745804269Q1075.6011131272894 317.4917745804269 1069.239105871845 326.04912236768024Q1062.8770986164 334.5840687209356 1062.8770986164 348.94338791368267L1062.8770986164 348.94338791368267Q1062.8770986164 363.7955386543869 1070.1351632317665 372.1736749696559L1070.1351632317665 372.1736749696559Q1076.2507547132332 379.27492954703627 1086.084984238375 379.27492954703627L1086.084984238375 379.27492954703627Q1097.061686897417 379.27492954703627 1103.6029056248462 370.9639975337614Q1110.1217229182776 362.65306552048656 1110.1217229182776 348.94338791368267L1110.1217229182776 348.94338791368267Q1110.1217229182776 333.77761709700593 1102.7068482649247 325.08586070576433L1102.7068482649247 325.08586070576433Q1096.098425235501 317.4917745804269 1086.084984238375 317.4917745804269Z " fill="#87eaf2" transform="matrix(0.7785865384871268,0,0,0.7785865384871268,0,27.93364943984784)"/>
</g>
</svg>